<svg xmlns="http://www.w3.org/2000/svg" viewBox="0 0 320 36" fill="none">
  <!-- Mark: PharmaTools.AI emblem -->
  <g transform="scale(0.1105)" fill="#0F6B5E">
    <path d="M249.95,35.28H17.64C7.9,35.28,0,27.38,0,17.64S7.9,0,17.64,0h232.31c9.74,0,17.64,7.9,17.64,17.64s-7.9,17.64-17.64,17.64"/>
    <path d="M317.7,107.87H17.64C7.9,107.87,0,99.97,0,90.23s7.89-17.64,17.64-17.64h300.05c9.74,0,17.64,7.9,17.64,17.64s-7.9,17.64-17.64,17.64"/>
    <path d="M249.95,253.07H17.64c-9.74,0-17.64-7.9-17.64-17.64s7.9-17.64,17.64-17.64h232.31c9.74,0,17.64,7.9,17.64,17.64s-7.9,17.64-17.64,17.64"/>
    <path d="M317.7,180.47H17.64C7.9,180.47,0,172.56,0,162.83s7.89-17.64,17.64-17.64h300.05c9.74,0,17.64,7.9,17.64,17.64s-7.9,17.64-17.64,17.64"/>
    <path d="M144.68,325.66H17.64C7.9,325.66,0,317.75,0,308.02s7.89-17.64,17.64-17.64h127.04c9.74,0,17.64,7.9,17.64,17.64s-7.9,17.64-17.64,17.64"/>
    <path d="M531.25,325.66h-127.04c-9.75,0-17.64-7.9-17.64-17.64s7.89-17.64,17.64-17.64h127.04c9.74,0,17.64,7.9,17.64,17.64s-7.9,17.64-17.64,17.64"/>
    <path d="M531.25,253.07h-127.04c-9.75,0-17.64-7.9-17.64-17.64s7.89-17.64,17.64-17.64h127.04c9.74,0,17.64,7.9,17.64,17.64s-7.9,17.64-17.64,17.64"/>
    <path d="M531.25,180.47h-127.04c-9.75,0-17.64-7.9-17.64-17.64s7.89-17.64,17.64-17.64h127.04c9.74,0,17.64,7.9,17.64,17.64s-7.9,17.64-17.64,17.64"/>
    <path d="M617.76,107.87h-300.05c-9.75,0-17.64-7.9-17.64-17.64s7.89-17.64,17.64-17.64h300.05c9.74,0,17.64,7.9,17.64,17.64s-7.9,17.64-17.64,17.64"/>
    <path d="M617.76,35.28h-300.05c-9.75,0-17.64-7.9-17.64-17.64s7.89-17.64,17.64-17.64h300.05c9.74,0,17.64,7.9,17.64,17.64s-7.9,17.64-17.64,17.64"/>
  </g>
  <!-- Text -->
  <text x="78" y="23" font-family="system-ui, -apple-system, 'Segoe UI', sans-serif" font-size="16" font-weight="600" fill="#1a1a1a" letter-spacing="-0.02em">Medical Writing AI Playbook</text>
</svg>
